<?xml version="1.0" encoding="UTF-8"?>
<svg height="16px" viewBox="0 0 16 16" width="16px" xmlns="http://www.w3.org/2000/svg">
    <path d="m 7.675781 4.707031 v 0.199219 h -0.0625 c -0.140625 0 -0.257812 0.160156 -0.257812 0.359375 s 0.117187 0.359375 0.257812 0.359375 h 0.0625 v 5.289062 h -0.0625 c -0.105469 0 -0.195312 0.121094 -0.195312 0.273438 c 0 0.148438 0.089843 0.273438 0.195312 0.273438 c -0.105469 0 -0.195312 0.125 -0.195312 0.273437 s 0.089843 0.273437 0.195312 0.273437 c -0.105469 0 -0.195312 0.125 -0.195312 0.273438 s 0.089843 0.273438 0.195312 0.273438 h 0.0625 v 0.285156 h -0.195312 v 0.410156 h -0.386719 v -0.582031 h -1.414062 v 0.644531 h 0.664062 v 0.5 h -0.664062 v 0.609375 h 0.679687 v 0.558594 h -0.679687 v 0.558593 h 1.433593 v -0.558593 h 0.386719 v 0.386719 h 0.175781 v 0.632812 h 0.648438 v -3.433594 h 0.0625 c 0.105469 0 0.195312 -0.125 0.195312 -0.273437 c 0 -0.148438 -0.089843 -0.273438 -0.195312 -0.273438 c 0.105469 0 0.195312 -0.125 0.195312 -0.273437 c 0 -0.148438 -0.089843 -0.273438 -0.195312 -0.273438 c 0.105469 0 0.195312 -0.125 0.195312 -0.273437 c 0 -0.148438 -0.089843 -0.273438 -0.195312 -0.273438 h -0.0625 v -5.3125 h 0.0625 c 0.140625 0 0.257812 -0.160156 0.257812 -0.359375 c 0 -0.199218 -0.117187 -0.363281 -0.257812 -0.363281 h -0.0625 v -0.199219 c 1.269531 -0.148437 2.257812 -1.128906 2.257812 -2.335937 c 0 -1.28125 -1.15625 -2.339844 -2.582031 -2.339844 s -2.582031 1.058594 -2.582031 2.351563 c 0 1.195312 0.988281 2.1875 2.257812 2.339843 z m -0.429687 -3.546875 c 0.316406 0 0.59375 0.222656 0.753906 0.558594 c 0.160156 -0.335938 0.4375 -0.558594 0.753906 -0.558594 c 0.5 0 0.902344 0.558594 0.902344 1.257813 c 0 0.695312 -0.402344 1.253906 -0.902344 1.253906 c -0.316406 0 -0.59375 -0.222656 -0.753906 -0.558594 c -0.160156 0.335938 -0.4375 0.558594 -0.753906 0.558594 c -0.5 0 -0.902344 -0.558594 -0.902344 -1.253906 c 0.007812 -0.6875 0.410156 -1.257813 0.902344 -1.257813 z m 0 0" fill="#222222" fill-rule="evenodd" stroke="#222222" stroke-width="0.105584"/>
</svg>
