<?xml version="1.0" encoding="UTF-8" standalone="no"?>
<svg
   height="152.66641"
   viewBox="0 0 50 152.66641"
   width="50"
   version="1.1"
   id="svg1"
   sodipodi:docname="ca.footeware.py.journal.key.svg"
   inkscape:version="1.4.2 (ebf0e940d0, 2025-05-08)"
   xmlns:inkscape="http://www.inkscape.org/namespaces/inkscape"
   xmlns:sodipodi="http://sodipodi.sourceforge.net/DTD/sodipodi-0.dtd"
   xmlns="http://www.w3.org/2000/svg"
   xmlns:svg="http://www.w3.org/2000/svg">
  <defs
     id="defs1">
    <filter
       inkscape:label="Dark Emboss"
       inkscape:menu="Bumps"
       inkscape:menu-tooltip="Emboss effect : 3D relief where white is replaced by black"
       style="color-interpolation-filters:sRGB"
       id="filter9"
       x="-0.01022296"
       y="-0.0033027254"
       width="1.0204459"
       height="1.0066055">
      <feConvolveMatrix
         order="3 3"
         kernelMatrix="0 -0.15 0 -0.15 1.6 -0.15 0 -0.15 0"
         divisor="1"
         in="SourceGraphic"
         targetX="1"
         targetY="1"
         id="feConvolveMatrix9"
         result="fbSourceGraphic" />
      <feColorMatrix
         result="fbSourceGraphicAlpha"
         in="fbSourceGraphic"
         values="0 0 0 -1 0 0 0 0 -1 0 0 0 0 -1 0 0 0 0 1 0"
         id="feColorMatrix29" />
      <feColorMatrix
         id="feColorMatrix30"
         result="result2"
         type="luminanceToAlpha"
         in="fbSourceGraphic" />
      <feDiffuseLighting
         id="feDiffuseLighting30"
         diffuseConstant="0.5"
         result="result1"
         surfaceScale="-10">
        <feDistantLight
           id="feDistantLight30"
           elevation="20"
           azimuth="225" />
      </feDiffuseLighting>
      <feComposite
         id="feComposite30"
         result="result3"
         k3="1"
         k2="1"
         k1="1"
         in="result1"
         operator="arithmetic"
         in2="fbSourceGraphic"
         k4="0" />
      <feBlend
         id="feBlend30"
         result="result4"
         mode="multiply"
         in="result2"
         in2="result3" />
      <feComposite
         id="feComposite31"
         result="result5"
         operator="arithmetic"
         k2="1.2"
         in2="result4"
         k1="0"
         k3="0"
         k4="0" />
      <feComposite
         id="feComposite32"
         operator="in"
         in="result5"
         in2="fbSourceGraphic" />
    </filter>
  </defs>
  <sodipodi:namedview
     id="namedview1"
     pagecolor="#505050"
     bordercolor="#ffffff"
     borderopacity="1"
     inkscape:showpageshadow="0"
     inkscape:pageopacity="0"
     inkscape:pagecheckerboard="1"
     inkscape:deskcolor="#505050"
     inkscape:zoom="4"
     inkscape:cx="-15.625"
     inkscape:cy="97.375"
     inkscape:window-width="2304"
     inkscape:window-height="1371"
     inkscape:window-x="0"
     inkscape:window-y="0"
     inkscape:window-maximized="1"
     inkscape:current-layer="svg1" />
  <path
     d="M 7.675781,4.707031 V 4.90625 h -0.0625 c -0.140625,0 -0.257812,0.160156 -0.257812,0.359375 0,0.199219 0.117187,0.359375 0.257812,0.359375 h 0.0625 v 5.289062 h -0.0625 c -0.105469,0 -0.195312,0.121094 -0.195312,0.273438 0,0.148438 0.089843,0.273438 0.195312,0.273438 -0.105469,0 -0.195312,0.125 -0.195312,0.273437 0,0.148437 0.089843,0.273437 0.195312,0.273437 -0.105469,0 -0.195312,0.125 -0.195312,0.273438 0,0.148438 0.089843,0.273438 0.195312,0.273438 h 0.0625 v 0.285156 H 7.480469 V 13.25 H 7.09375 V 12.667969 H 5.679688 V 13.3125 H 6.34375 v 0.5 H 5.679688 v 0.609375 h 0.679687 v 0.558594 H 5.679688 v 0.558593 H 7.113281 V 14.980469 H 7.5 v 0.386719 H 7.675781 V 16 h 0.648438 v -3.433594 h 0.0625 c 0.105469,0 0.195312,-0.125 0.195312,-0.273437 0,-0.148438 -0.089843,-0.273438 -0.195312,-0.273438 0.105469,0 0.195312,-0.125 0.195312,-0.273437 0,-0.148438 -0.089843,-0.273438 -0.195312,-0.273438 0.105469,0 0.195312,-0.125 0.195312,-0.273437 0,-0.148438 -0.089843,-0.273438 -0.195312,-0.273438 h -0.0625 v -5.3125 h 0.0625 c 0.140625,0 0.257812,-0.160156 0.257812,-0.359375 0,-0.199218 -0.117187,-0.363281 -0.257812,-0.363281 h -0.0625 V 4.691406 C 9.59375,4.542969 10.582031,3.5625 10.582031,2.355469 10.582031,1.074219 9.425781,0.015625 8,0.015625 c -1.425781,0 -2.582031,1.058594 -2.582031,2.351563 0,1.195312 0.988281,2.1875 2.257812,2.339843 z M 7.246094,1.160156 C 7.5625,1.160156 7.839844,1.382812 8,1.71875 8.160156,1.382812 8.4375,1.160156 8.753906,1.160156 c 0.5,0 0.902344,0.558594 0.902344,1.257813 0,0.695312 -0.402344,1.253906 -0.902344,1.253906 C 8.4375,3.671875 8.160156,3.449219 8,3.113281 7.839844,3.449219 7.5625,3.671875 7.246094,3.671875 c -0.5,0 -0.902344,-0.558594 -0.902344,-1.253906 0.00781,-0.6875 0.410156,-1.257813 0.902344,-1.257813 z m 0,0"
     fill="#222222"
     fill-rule="evenodd"
     stroke="#222222"
     stroke-width="0.105584"
     id="path1"
     style="fill:#000000;filter:url(#filter9)"
     transform="matrix(9.4883032,0,0,9.4883032,-50.906426,0.35265179)" />
</svg>
