<?xml version="1.0" encoding="UTF-8"?>
<svg height="128px" viewBox="0 0 128 128" width="128px" xmlns="http://www.w3.org/2000/svg">
    <g fill-rule="evenodd">
        <path d="m 27.519531 105.09375 h 74.980469 c 2.691406 0 4.875 2.117188 4.875 4.726562 v 1.121094 c 0 2.609375 -2.183594 4.726563 -4.875 4.726563 h -74.980469 c -2.691406 0 -4.875 -2.117188 -4.875 -4.726563 v -1.121094 c 0 -2.609374 2.183594 -4.726562 4.875 -4.726562 z m 0 0" fill="#cdab8f"/>
        <path d="m 27.351562 12.632812 h 9.414063 v 100.4375 h -9.414063 c -2.589843 0 -4.707031 -1.882812 -4.707031 -4.183593 v -92.066407 c 0 -2.300781 2.117188 -4.1875 4.707031 -4.1875 z m 0 0" fill="#734828"/>
        <path d="m 36.765625 12.632812 h 65.902344 c 2.589843 0 4.707031 1.886719 4.707031 4.1875 v 92.066407 c 0 2.300781 -2.117188 4.183593 -4.707031 4.183593 h -65.902344 z m 0 0" fill="#a87246"/>
    </g>
    <path d="m 65.375 57.878906 c 0.066406 -0.019531 0.019531 -0.015625 -0.019531 -0.019531 z m 0 0" fill="#212121"/>
    <path d="m 32.710938 23.6875 c 0 1.65625 -1.382813 2.996094 -3.089844 2.996094 c -1.707032 0 -3.089844 -1.339844 -3.089844 -2.996094 c 0 -1.652344 1.382812 -2.996094 3.089844 -2.996094 c 1.707031 0 3.089844 1.34375 3.089844 2.996094 z m 0 0" fill="#543117" fill-rule="evenodd"/>
    <path d="m 22.199219 22.464844 c -0.980469 0 -1.777344 0.640625 -1.777344 1.4375 c 0 0.792968 0.796875 1.4375 1.777344 1.4375 h 5.730469 c 0.980468 0 1.777343 -0.644532 1.777343 -1.4375 c 0 -0.796875 -0.796875 -1.4375 -1.777343 -1.4375 z m 0 0" fill="#bdbdbd"/>
    <path d="m 32.710938 32.390625 c 0 1.65625 -1.382813 2.996094 -3.089844 2.996094 c -1.707032 0 -3.089844 -1.339844 -3.089844 -2.996094 c 0 -1.652344 1.382812 -2.996094 3.089844 -2.996094 c 1.707031 0 3.089844 1.34375 3.089844 2.996094 z m 0 0" fill="#543117" fill-rule="evenodd"/>
    <path d="m 22.199219 31.167969 c -0.980469 0 -1.777344 0.640625 -1.777344 1.4375 c 0 0.792969 0.796875 1.4375 1.777344 1.4375 h 5.730469 c 0.980468 0 1.777343 -0.644531 1.777343 -1.4375 c 0 -0.796875 -0.796875 -1.4375 -1.777343 -1.4375 z m 0 0" fill="#bdbdbd"/>
    <path d="m 32.710938 41.09375 c 0 1.65625 -1.382813 2.996094 -3.089844 2.996094 c -1.707032 0 -3.089844 -1.339844 -3.089844 -2.996094 c 0 -1.652344 1.382812 -2.996094 3.089844 -2.996094 c 1.707031 0 3.089844 1.34375 3.089844 2.996094 z m 0 0" fill="#543117" fill-rule="evenodd"/>
    <path d="m 22.199219 39.871094 c -0.980469 0 -1.777344 0.640625 -1.777344 1.4375 c 0 0.792968 0.796875 1.4375 1.777344 1.4375 h 5.730469 c 0.980468 0 1.777343 -0.644532 1.777343 -1.4375 c 0 -0.796875 -0.796875 -1.4375 -1.777343 -1.4375 z m 0 0" fill="#bdbdbd"/>
    <path d="m 32.710938 49.796875 c 0 1.65625 -1.382813 2.996094 -3.089844 2.996094 c -1.707032 0 -3.089844 -1.339844 -3.089844 -2.996094 c 0 -1.652344 1.382812 -2.996094 3.089844 -2.996094 c 1.707031 0 3.089844 1.34375 3.089844 2.996094 z m 0 0" fill="#543117" fill-rule="evenodd"/>
    <path d="m 22.199219 48.574219 c -0.980469 0 -1.777344 0.640625 -1.777344 1.4375 c 0 0.792969 0.796875 1.4375 1.777344 1.4375 h 5.730469 c 0.980468 0 1.777343 -0.644531 1.777343 -1.4375 c 0 -0.796875 -0.796875 -1.4375 -1.777343 -1.4375 z m 0 0" fill="#bdbdbd"/>
    <path d="m 32.710938 58.5 c 0 1.65625 -1.382813 2.996094 -3.089844 2.996094 c -1.707032 0 -3.089844 -1.339844 -3.089844 -2.996094 c 0 -1.652344 1.382812 -2.996094 3.089844 -2.996094 c 1.707031 0 3.089844 1.34375 3.089844 2.996094 z m 0 0" fill="#543117" fill-rule="evenodd"/>
    <path d="m 22.199219 57.277344 c -0.980469 0 -1.777344 0.640625 -1.777344 1.4375 c 0 0.792968 0.796875 1.4375 1.777344 1.4375 h 5.730469 c 0.980468 0 1.777343 -0.644532 1.777343 -1.4375 c 0 -0.796875 -0.796875 -1.4375 -1.777343 -1.4375 z m 0 0" fill="#bdbdbd"/>
    <path d="m 32.710938 67.203125 c 0 1.65625 -1.382813 2.996094 -3.089844 2.996094 c -1.707032 0 -3.089844 -1.339844 -3.089844 -2.996094 c 0 -1.652344 1.382812 -2.996094 3.089844 -2.996094 c 1.707031 0 3.089844 1.34375 3.089844 2.996094 z m 0 0" fill="#543117" fill-rule="evenodd"/>
    <path d="m 22.199219 65.980469 c -0.980469 0 -1.777344 0.644531 -1.777344 1.4375 s 0.796875 1.4375 1.777344 1.4375 h 5.730469 c 0.980468 0 1.777343 -0.644531 1.777343 -1.4375 s -0.796875 -1.4375 -1.777343 -1.4375 z m 0 0" fill="#bdbdbd"/>
    <path d="m 32.710938 75.90625 c 0 1.65625 -1.382813 2.996094 -3.089844 2.996094 c -1.707032 0 -3.089844 -1.339844 -3.089844 -2.996094 c 0 -1.652344 1.382812 -2.996094 3.089844 -2.996094 c 1.707031 0 3.089844 1.34375 3.089844 2.996094 z m 0 0" fill="#543117" fill-rule="evenodd"/>
    <path d="m 22.199219 74.683594 c -0.980469 0 -1.777344 0.644531 -1.777344 1.4375 c 0 0.792968 0.796875 1.4375 1.777344 1.4375 h 5.730469 c 0.980468 0 1.777343 -0.644532 1.777343 -1.4375 c 0 -0.792969 -0.796875 -1.4375 -1.777343 -1.4375 z m 0 0" fill="#bdbdbd"/>
    <path d="m 32.710938 84.609375 c 0 1.65625 -1.382813 3 -3.089844 3 c -1.707032 0 -3.089844 -1.34375 -3.089844 -3 c 0 -1.652344 1.382812 -2.996094 3.089844 -2.996094 c 1.707031 0 3.089844 1.34375 3.089844 2.996094 z m 0 0" fill="#543117" fill-rule="evenodd"/>
    <path d="m 22.199219 83.386719 c -0.980469 0 -1.777344 0.644531 -1.777344 1.4375 s 0.796875 1.4375 1.777344 1.4375 h 5.730469 c 0.980468 0 1.777343 -0.644531 1.777343 -1.4375 s -0.796875 -1.4375 -1.777343 -1.4375 z m 0 0" fill="#bdbdbd"/>
    <path d="m 32.710938 93.3125 c 0 1.65625 -1.382813 3 -3.089844 3 c -1.707032 0 -3.089844 -1.34375 -3.089844 -3 c 0 -1.652344 1.382812 -2.996094 3.089844 -2.996094 c 1.707031 0 3.089844 1.34375 3.089844 2.996094 z m 0 0" fill="#543117" fill-rule="evenodd"/>
    <path d="m 22.199219 92.089844 c -0.980469 0 -1.777344 0.644531 -1.777344 1.4375 c 0 0.792968 0.796875 1.4375 1.777344 1.4375 h 5.730469 c 0.980468 0 1.777343 -0.644532 1.777343 -1.4375 c 0 -0.792969 -0.796875 -1.4375 -1.777343 -1.4375 z m 0 0" fill="#bdbdbd"/>
    <path d="m 32.710938 102.015625 c 0 1.65625 -1.382813 3 -3.089844 3 c -1.707032 0 -3.089844 -1.34375 -3.089844 -3 c 0 -1.652344 1.382812 -2.996094 3.089844 -2.996094 c 1.707031 0 3.089844 1.34375 3.089844 2.996094 z m 0 0" fill="#543117" fill-rule="evenodd"/>
    <path d="m 22.199219 100.792969 c -0.980469 0 -1.777344 0.644531 -1.777344 1.4375 s 0.796875 1.4375 1.777344 1.4375 h 5.730469 c 0.980468 0 1.777343 -0.644531 1.777343 -1.4375 s -0.796875 -1.4375 -1.777343 -1.4375 z m 0 0" fill="#bdbdbd"/>
    <path d="m 70.59375 47.804688 v 0.929687 h -0.289062 c -0.671876 0 -1.214844 0.753906 -1.214844 1.683594 c 0 0.925781 0.542968 1.679687 1.214844 1.679687 h 0.289062 v 24.652344 h -0.289062 c -0.503907 0 -0.921876 0.578125 -0.921876 1.277344 c 0 0.695312 0.417969 1.273437 0.921876 1.273437 c -0.503907 0 -0.921876 0.582031 -0.921876 1.277344 s 0.417969 1.277344 0.921876 1.277344 c -0.503907 0 -0.921876 0.578125 -0.921876 1.273437 c 0 0.695313 0.417969 1.277344 0.921876 1.277344 h 0.289062 v 1.332031 h -0.917969 v 1.914063 h -1.796875 v -2.722656 h -6.601562 v 3.015624 h 3.089844 v 2.320313 h -3.089844 v 2.839844 h 3.175781 v 2.609375 h -3.175781 v 2.613281 h 6.683594 v -2.613281 h 1.796874 v 1.800781 h 0.835938 v 2.957031 h 3.011719 v -16.007812 h 0.292969 c 0.5 0 0.917968 -0.582032 0.917968 -1.277344 s -0.417968 -1.277344 -0.917968 -1.277344 c 0.5 0 0.917968 -0.578125 0.917968 -1.273437 c 0 -0.695313 -0.417968 -1.277344 -0.917968 -1.277344 c 0.5 0 0.917968 -0.578125 0.917968 -1.277344 c 0 -0.695312 -0.417968 -1.273437 -0.917968 -1.273437 h -0.292969 v -24.769532 h 0.292969 c 0.667968 0 1.210937 -0.753906 1.210937 -1.679687 c 0 -0.929687 -0.542969 -1.683594 -1.210937 -1.683594 h -0.292969 v -0.925781 c 5.933593 -0.699219 10.53125 -5.28125 10.53125 -10.90625 c 0 -5.972656 -5.390625 -10.90625 -12.035157 -10.90625 c -6.644531 0 -12.039062 4.933594 -12.039062 10.964844 c 0 5.566406 4.597656 10.207031 10.53125 10.902344 z m -2.003906 -16.53125 c 1.460937 0 2.757812 1.046874 3.511718 2.613281 c 0.75 -1.566407 2.046876 -2.613281 3.507813 -2.613281 c 2.339844 0 4.222656 2.613281 4.222656 5.859374 c 0 3.25 -1.882812 5.859376 -4.222656 5.859376 c -1.460937 0 -2.757813 -1.042969 -3.507813 -2.609376 c -0.753906 1.566407 -2.050781 2.609376 -3.511718 2.609376 c -2.339844 0 -4.222656 -2.609376 -4.222656 -5.859376 c 0.042968 -3.1875 1.921874 -5.859374 4.222656 -5.859374 z m 0 0" fill="#543117" fill-rule="evenodd"/>
</svg>
