<?xml version="1.0" encoding="UTF-8" standalone="no"?>
<!-- Uploaded to: SVG Repo, www.svgrepo.com, Transformed by: SVG Repo Mixer Tools -->

<svg
   fill="#000000"
   width="800px"
   height="800px"
   viewBox="0 0 24 24"
   id="diary-left"
   data-name="Flat Color"
   class="icon flat-color"
   version="1.1"
   sodipodi:docname="ca.footeware.py.journal.svg"
   inkscape:version="1.4.2 (ebf0e940d0, 2025-05-08)"
   xmlns:inkscape="http://www.inkscape.org/namespaces/inkscape"
   xmlns:sodipodi="http://sodipodi.sourceforge.net/DTD/sodipodi-0.dtd"
   xmlns="http://www.w3.org/2000/svg"
   xmlns:svg="http://www.w3.org/2000/svg">
  <defs
     id="defs1" />
  <sodipodi:namedview
     id="namedview1"
     pagecolor="#ffffff"
     bordercolor="#111111"
     borderopacity="1"
     inkscape:showpageshadow="0"
     inkscape:pageopacity="0"
     inkscape:pagecheckerboard="1"
     inkscape:deskcolor="#d1d1d1"
     inkscape:zoom="1.3575"
     inkscape:cx="400.36832"
     inkscape:cy="399.63168"
     inkscape:window-width="2304"
     inkscape:window-height="1371"
     inkscape:window-x="0"
     inkscape:window-y="0"
     inkscape:window-maximized="1"
     inkscape:current-layer="diary-left" />
  <g
     id="SVGRepo_bgCarrier"
     stroke-width="0" />
  <g
     id="SVGRepo_tracerCarrier"
     stroke-linecap="round"
     stroke-linejoin="round" />
  <rect
     id="primary"
     x="4"
     y="2"
     width="18"
     height="20"
     rx="2"
     style="fill:#63452c" />
  <path
     id="secondary"
     d="m 22,4 v 16 c 0,1.104569 -0.895431,2 -2,2 H 18 V 2 h 2 c 1.104569,0 2,0.8954305 2,2 z M 3.69,5.29 2.29,6.69 c -0.3811429,0.3888435 -0.3811429,1.0111565 0,1.4 L 8.9,14.71 C 9.0887188,14.897187 9.344197,15.001537 9.61,15 H 11 c 0.552285,0 1,-0.447715 1,-1 V 12.61 C 11.9963,12.345233 11.892734,12.091634 11.71,11.9 L 5.09,5.29 C 4.7011565,4.9088571 4.0788435,4.9088571 3.69,5.29 Z"
     style="fill:#986a44"
     sodipodi:nodetypes="sssccsscccccsscccc" />
</svg>
